<svg xmlns="http://www.w3.org/2000/svg" viewBox="0 0 1678 1492">
  <defs>
    <style>
      .a{fill: #68c8c7;}.b{fill: #f1f2f2;}.c{fill: #f2d176;}

      .d {
        fill: #f68e4b;
      }

      .e, .f {
        fill: #d1ecf0;
      }

      .f {
        stroke: #d1ecf0;
        stroke-miterlimit: 10;
        stroke-width: 5px;
      }

      .g {
        fill: #e06174;
      }

      .h {
        fill: #4a5179;
      }

      .i {
        fill: #7e8fad;
      }

      .j {
        fill: #495077;
      }

      .k {
        fill: #66c7c7;
      }
    </style>
  </defs>
  <rect class="a" x="0.3" y="61" width="1679" height="2022" rx="62.5"/>
  <rect class="b" x="68.4" y="128" width="1548.5" height="1951.03" rx="40.4"/>
  <rect class="c" x="425.8" y="1" width="827" height="189" rx="29.6"/>
  <rect class="d" x="488.6" y="75.9" width="701.4" height="39.16" rx="8"/>
  <g>
    <rect class="e" x="283.3" y="474" width="95" height="95"/>
    <line class="f" x1="241.3" y1="636.5" x2="1443.3" y2="636.5"/>
    <path class="g" d="M300.6,523.5a3.2,3.2,0,0,1,0-4.6l4.5-4.7a3.2,3.2,0,0,1,4.6,0l14.1,14.4,30.3-30.9a3.4,3.4,0,0,1,4.6,0l4.6,4.7a3.5,3.5,0,0,1,0,4.7l-37.2,37.8a3.1,3.1,0,0,1-4.5,0Z"/>
    <g>
      <path class="h" d="M468.4,477.3c3.4,0,5.3,1.9,5.3,5.2v3.9c0,3.3-1.9,5.2-5.3,5.2H449.9v24.9h13.7c3.3,0,5.2,1.9,5.2,5.2v3.8c0,3.4-1.9,5.3-5.2,5.3H449.9v33.9c0,3.3-1.9,5.3-5.3,5.3h-8.4c-3.3,0-5.3-2-5.3-5.3V482.5c0-3.3,2-5.2,5.3-5.2Z"/>
      <path class="h" d="M520.8,531.4l11.6,31c1.1,2.7.4,7.6-4.8,7.6h-8.9a5,5,0,0,1-5.1-3.5l-11.4-32h-3.8v30.2c0,3.3-1.9,5.3-5.3,5.3h-8.4c-3.3,0-5.3-2-5.3-5.3V482.5c0-3.3,2-5.2,5.3-5.2h20.1c16.5,0,25.3,6.4,25.3,20.3v16.5C530.1,522.6,526.9,528.2,520.8,531.4Zm-16-11.2c4.2,0,6.4-2.6,6.4-6.1V497.6c0-3.4-2.2-6-6.4-6h-6.4v28.6Z"/>
      <path class="h" d="M577.9,477.3c3.3,0,5.2,1.9,5.2,5.2v3.9c0,3.3-1.9,5.2-5.2,5.2H559.3v24.9H573c3.3,0,5.3,1.9,5.3,5.2v3.8c0,3.4-2,5.3-5.3,5.3H559.3v24.8h18.6c3.3,0,5.2,1.9,5.2,5.3v3.8c0,3.3-1.9,5.3-5.2,5.3H545.6c-3.3,0-5.2-2-5.2-5.3V482.5c0-3.3,1.9-5.2,5.2-5.2Z"/>
      <path class="h" d="M627,477.3c3.4,0,5.3,1.9,5.3,5.2v3.9c0,3.3-1.9,5.2-5.3,5.2H608.5v24.9h13.7c3.3,0,5.2,1.9,5.2,5.2v3.8c0,3.4-1.9,5.3-5.2,5.3H608.5v24.8H627c3.4,0,5.3,1.9,5.3,5.3v3.8c0,3.3-1.9,5.3-5.3,5.3H594.8c-3.4,0-5.3-2-5.3-5.3V482.5c0-3.3,1.9-5.2,5.3-5.2Z"/>
    </g>
  </g>
  <g>
    <rect class="e" x="282.3" y="718.2" width="95" height="95"/>
    <line class="f" x1="240.3" y1="880.7" x2="1442.3" y2="880.7"/>
    <path class="g" d="M299.6,767.7a3.2,3.2,0,0,1,0-4.6l4.5-4.7a3.2,3.2,0,0,1,4.6,0l14.1,14.4L353.1,742a3.2,3.2,0,0,1,4.6,0l4.6,4.6a3.5,3.5,0,0,1,0,4.7l-37.2,37.8a3.1,3.1,0,0,1-4.5,0Z"/>
    <g>
      <path class="h" d="M451.4,781.1v26.8c0,3.3-1.9,5.2-5.2,5.2h-8.5c-3.3,0-5.2-1.9-5.2-5.2V725.7c0-3.4,1.9-5.3,5.2-5.3h18.8c16.6,0,25.4,6.4,25.4,20.4v19.9c0,14-8.8,20.4-25.4,20.4Zm5.1-14.3c4.3,0,6.4-2.6,6.4-6.1V740.8c0-3.5-2.1-6-6.4-6h-5.1v32Z"/>
      <path class="h" d="M530.9,774.6l11.7,30.9c1,2.7.3,7.6-4.9,7.6h-8.8a5.1,5.1,0,0,1-5.2-3.5l-11.4-32h-3.8v30.3c0,3.3-1.9,5.2-5.2,5.2h-8.5c-3.3,0-5.2-1.9-5.2-5.2V725.7c0-3.4,1.9-5.3,5.2-5.3h20.1c16.5,0,25.4,6.4,25.4,20.4v16.5C540.3,765.7,537.1,771.4,530.9,774.6Zm-16-11.3c4.2,0,6.4-2.6,6.4-6V740.8c0-3.5-2.2-6-6.4-6h-6.4v28.5Z"/>
      <path class="h" d="M588,720.4c3.3,0,5.2,1.9,5.2,5.3v3.8c0,3.3-1.9,5.3-5.2,5.3H569.4v24.8h13.7c3.4,0,5.3,1.9,5.3,5.2v3.9c0,3.3-1.9,5.2-5.3,5.2H569.4v24.9H588c3.3,0,5.2,1.9,5.2,5.2v3.9c0,3.3-1.9,5.2-5.2,5.2H555.7c-3.3,0-5.2-1.9-5.2-5.2V725.7c0-3.4,1.9-5.3,5.2-5.3Z"/>
      <path class="h" d="M622.7,769.3c3.3,0,5.2,1.9,5.2,5.3v3.8c0,3.3-1.9,5.3-5.2,5.3H602.3c-3.3,0-5.2-2-5.2-5.3v-3.8c0-3.4,1.9-5.3,5.2-5.3Z"/>
      <path class="h" d="M654.6,781.1v26.8c0,3.3-2,5.2-5.3,5.2h-8.4c-3.4,0-5.3-1.9-5.3-5.2V725.7c0-3.4,1.9-5.3,5.3-5.3h18.8c16.5,0,25.3,6.4,25.3,20.4v19.9c0,14-8.8,20.4-25.3,20.4Zm5.1-14.3c4.2,0,6.4-2.6,6.4-6.1V740.8c0-3.5-2.2-6-6.4-6h-5.1v32Z"/>
      <path class="h" d="M711.6,798.8h18.6c3.3,0,5.2,1.9,5.2,5.2v3.9c0,3.3-1.9,5.2-5.2,5.2H697.9c-3.3,0-5.2-1.9-5.2-5.2V725.7c0-3.4,1.9-5.3,5.2-5.3h8.5c3.3,0,5.2,1.9,5.2,5.3Z"/>
      <path class="h" d="M774,808.5l-1.6-12.8H757.1l-1.6,12.8c-.3,3.6-2.8,4.6-5.2,4.6h-7.7c-3.8,0-5.7-2.7-5.1-6.5l12.3-81.2c.5-3.7,2.4-5,5.4-5h19.2c2.9,0,4.8,1.3,5.3,5L792,806.6c.7,3.8-1.3,6.5-5.1,6.5h-7.7C776.8,813.1,774.4,812.1,774,808.5Zm-15.3-27.1h11.9L769,766.8l-3.6-34.2h-1.3l-3.6,34.2Z"/>
      <path class="h" d="M832.9,725.7c0-3.4,1.9-5.3,5.2-5.3h7.2c3.3,0,5.2,1.9,5.2,5.3v82.2c0,3.3-1.9,5.2-5.2,5.2h-8.6c-3.2,0-4.5-1.7-5.3-3.8l-9.6-27.7-6.2-22.3-1.3.3,1.9,22.9v25.4c0,3.3-1.9,5.2-5.2,5.2h-7.2c-3.3,0-5.3-1.9-5.3-5.2V725.7c0-3.4,2-5.3,5.3-5.3h8.6c3.2,0,4.5,1.7,5.2,3.9l9.6,27.6,6.3,22.3,1.3-.3L832.9,751Z"/>
      <path class="h" d="M895.1,725.7c0-3.4,1.9-5.3,5.2-5.3h7.2c3.3,0,5.2,1.9,5.2,5.3v82.2c0,3.3-1.9,5.2-5.2,5.2h-8.6a4.9,4.9,0,0,1-5.2-3.8l-9.6-27.7-6.3-22.3-1.3.3,1.9,22.9v25.4c0,3.3-1.9,5.2-5.2,5.2H866c-3.3,0-5.2-1.9-5.2-5.2V725.7c0-3.4,1.9-5.3,5.2-5.3h8.6c3.2,0,4.5,1.7,5.2,3.9l9.6,27.6,6.3,22.3,1.3-.3L895.1,751Z"/>
      <path class="h" d="M960.5,720.4c3.3,0,5.2,1.9,5.2,5.3v3.8c0,3.3-1.9,5.3-5.2,5.3H941.9v24.8h13.7c3.3,0,5.3,1.9,5.3,5.2v3.9c0,3.3-2,5.2-5.3,5.2H941.9v24.9h18.6c3.3,0,5.2,1.9,5.2,5.2v3.9c0,3.3-1.9,5.2-5.2,5.2H928.2c-3.3,0-5.2-1.9-5.2-5.2V725.7c0-3.4,1.9-5.3,5.2-5.3Z"/>
      <path class="h" d="M977.4,813.1c-3.4,0-5.3-1.9-5.3-5.2V725.7c0-3.4,1.9-5.3,5.3-5.3h20.1c16.5,0,25.3,6.4,25.3,20.4v51.9c0,14-8.8,20.4-25.3,20.4Zm20.1-14.3c4.2,0,6.4-2.6,6.4-6.1V740.8c0-3.5-2.2-6-6.4-6h-6.4v64Z"/>
    </g>
  </g>
  <g>
    <rect class="e" x="282.3" y="961.4" width="95" height="95"/>
    <line class="f" x1="240.3" y1="1123.9" x2="1442.3" y2="1123.9"/>
    <path class="g" d="M299.6,1010.9a3.2,3.2,0,0,1,0-4.6l4.5-4.7a3.2,3.2,0,0,1,4.6,0l14.1,14.4,30.3-30.8a3.2,3.2,0,0,1,4.6,0l4.6,4.6a3.5,3.5,0,0,1,0,4.7l-37.2,37.8a3.1,3.1,0,0,1-4.5,0Z"/>
    <g>
      <path class="h" d="M461.1,1039.4c-3,0-4.7-1.6-5.1-3.8l-7.1-42.5h-1.3l1.3,17.9v40.1c0,3.3-2,5.2-5.3,5.2h-5.9c-3.3,0-5.2-1.9-5.2-5.2V968.9c0-3.5,2-5.3,5.2-5.3h14.2c3.4,0,4.9,1.7,5.4,5l4.7,22.8,3,22h1.3l2.9-22,4.7-22.8c.6-3.3,2.1-5,5.4-5h14.2c3.2,0,5.3,1.8,5.3,5.3v82.2c0,3.3-1.9,5.2-5.3,5.2h-5.9c-3.3,0-5.2-1.9-5.2-5.2V1011l1.3-17.9h-1.3l-7.2,42.5c-.4,2.2-2,3.8-5.1,3.8Z"/>
      <path class="h" d="M546.5,963.6c3.4,0,5.3,2,5.3,5.3v3.8c0,3.4-1.9,5.3-5.3,5.3H528v24.8h13.7c3.3,0,5.2,1.9,5.2,5.3v3.8c0,3.3-1.9,5.2-5.2,5.2H528V1042h18.5c3.4,0,5.3,1.9,5.3,5.2v3.9c0,3.3-1.9,5.2-5.3,5.2H514.3c-3.4,0-5.3-1.9-5.3-5.2V968.9c0-3.3,1.9-5.3,5.3-5.3Z"/>
      <path class="h" d="M595.7,963.6c3.3,0,5.2,2,5.2,5.3v3.8c0,3.4-1.9,5.3-5.2,5.3H577.1v24.8h13.7c3.3,0,5.3,1.9,5.3,5.3v3.8c0,3.3-2,5.2-5.3,5.2H577.1V1042h18.6c3.3,0,5.2,1.9,5.2,5.2v3.9c0,3.3-1.9,5.2-5.2,5.2H563.4c-3.3,0-5.2-1.9-5.2-5.2V968.9c0-3.3,1.9-5.3,5.2-5.3Z"/>
      <path class="h" d="M638.6,978v73.1c0,3.3-2,5.2-5.3,5.2h-8.4c-3.4,0-5.3-1.9-5.3-5.2V978H607.4c-3.3,0-5.2-1.9-5.2-5.3v-3.8c0-3.3,1.9-5.3,5.2-5.3h43.3c3.3,0,5.3,2,5.3,5.3v3.8c0,3.4-2,5.3-5.3,5.3Z"/>
      <path class="h" d="M685,997.8l15,12.7c9.2,7.8,10.5,14.2,10.5,26.1,0,14-8.8,20.4-25.4,20.4s-25.3-6.4-25.3-20.4v-9.1c0-3.3,1.9-5.2,5.2-5.2h8.5c3.3,0,5.2,1.9,5.2,5.2v9.1c0,3.5,2.2,6,6.4,6s6.4-2.5,6.4-6c0-6.7-1-10.1-6.2-14.5l-15-12.6c-9.2-7.8-10.5-14.2-10.5-26.1,0-14,8.8-20.4,25.3-20.4s25.4,6.4,25.4,20.4v9c0,3.4-1.9,5.3-5.3,5.3h-8.4c-3.3,0-5.3-1.9-5.3-5.3v-9c0-3.5-2.1-6.1-6.4-6.1s-6.4,2.6-6.4,6.1C678.7,990,679.8,993.5,685,997.8Z"/>
      <path class="h" d="M799.6,983.4v53.2c0,14-8.9,20.4-25.4,20.4s-25.3-6.4-25.3-20.4V983.4c0-14,8.8-20.4,25.3-20.4S799.6,969.4,799.6,983.4Zm-31.8,0v53.2c0,3.5,2.2,6,6.4,6s6.4-2.5,6.4-6V983.4c0-3.5-2.1-6.1-6.4-6.1S767.8,979.9,767.8,983.4Z"/>
      <path class="h" d="M815.1,1056.3c-3.4,0-5.3-1.9-5.3-5.2V968.9c0-3.3,1.9-5.3,5.3-5.3h18.8c16.5,0,25.3,6.4,25.3,20.4v7c0,9.5-4.1,15.5-11.8,18.3v1.3c7.7,3,11.8,9,11.8,18.3v7.1c0,13.9-8.8,20.3-25.3,20.3Zm18.8-53.5c4.2,0,6.4-2.6,6.4-6V984c0-3.5-2.2-6-6.4-6h-5.1v24.8Zm0,39.2c4.2,0,6.4-2.6,6.4-6v-12.8c0-3.5-2.2-6.1-6.4-6.1h-5.1V1042Z"/>
      <path class="h" d="M916.9,1036.6c0,14-8.8,20.4-25.3,20.4s-25.3-6.4-25.3-20.4v-10.4c0-3.3,1.9-5.2,5.2-5.2H880c3.3,0,5.2,1.9,5.2,5.2v10.4c0,3.5,2.2,6,6.4,6s6.4-2.5,6.4-6V968.9c0-3.3,1.9-5.3,5.3-5.3h8.4c3.3,0,5.2,2,5.2,5.3Z"/>
      <path class="h" d="M964.7,963.6c3.3,0,5.2,2,5.2,5.3v3.8c0,3.4-1.9,5.3-5.2,5.3H946.1v24.8h13.7c3.4,0,5.3,1.9,5.3,5.3v3.8c0,3.3-1.9,5.2-5.3,5.2H946.1V1042h18.6c3.3,0,5.2,1.9,5.2,5.2v3.9c0,3.3-1.9,5.2-5.2,5.2H932.4c-3.3,0-5.2-1.9-5.2-5.2V968.9c0-3.3,1.9-5.3,5.2-5.3Z"/>
      <path class="h" d="M1027,996.3c0,3.3-1.9,5.2-5.2,5.2h-8.5c-3.3,0-5.2-1.9-5.2-5.2V983.4c0-3.5-2.2-6.1-6.4-6.1s-6.4,2.6-6.4,6.1v53.2c0,3.5,2.2,6,6.4,6s6.4-2.5,6.4-6v-12.9c0-3.4,1.9-5.3,5.2-5.3h8.5c3.3,0,5.2,1.9,5.2,5.3v12.9c0,14-8.8,20.4-25.3,20.4s-25.4-6.4-25.4-20.4V983.4c0-14,8.9-20.4,25.4-20.4s25.3,6.4,25.3,20.4Z"/>
      <path class="h" d="M1068.5,978v73.1c0,3.3-1.9,5.2-5.3,5.2h-8.4c-3.3,0-5.2-1.9-5.2-5.2V978h-12.2c-3.3,0-5.3-1.9-5.3-5.3v-3.8c0-3.3,2-5.3,5.3-5.3h43.3c3.3,0,5.2,2,5.2,5.3v3.8c0,3.4-1.9,5.3-5.2,5.3Z"/>
      <path class="h" d="M1110,1051.1c0,3.3-2,5.2-5.3,5.2h-8.4c-3.4,0-5.3-1.9-5.3-5.2V968.9c0-3.3,1.9-5.3,5.3-5.3h8.4c3.3,0,5.3,2,5.3,5.3Z"/>
      <path class="h" d="M1134.5,968.2l5.7,41.8,2.9,34.2h1.3l2.9-34.2,5.7-41.8c.4-3.5,2.8-4.6,5.2-4.6h7.7c3.8,0,5.8,2.7,5.1,6.6l-12.3,81.1c-.5,3.7-2.4,5-5.3,5h-19.2c-3,0-4.9-1.3-5.4-5l-12.3-81.1c-.6-3.9,1.3-6.6,5.1-6.6h7.7C1131.7,963.6,1134.2,964.7,1134.5,968.2Z"/>
      <path class="h" d="M1215.1,963.6c3.3,0,5.2,2,5.2,5.3v3.8c0,3.4-1.9,5.3-5.2,5.3h-18.6v24.8h13.7c3.3,0,5.2,1.9,5.2,5.3v3.8c0,3.3-1.9,5.2-5.2,5.2h-13.7V1042h18.6c3.3,0,5.2,1.9,5.2,5.2v3.9c0,3.3-1.9,5.2-5.2,5.2h-32.3c-3.3,0-5.2-1.9-5.2-5.2V968.9c0-3.3,1.9-5.3,5.2-5.3Z"/>
      <path class="h" d="M1250.6,997.8l15,12.7c9.2,7.8,10.5,14.2,10.5,26.1,0,14-8.8,20.4-25.3,20.4s-25.4-6.4-25.4-20.4v-9.1c0-3.3,1.9-5.2,5.3-5.2h8.4c3.3,0,5.3,1.9,5.3,5.2v9.1c0,3.5,2.1,6,6.4,6s6.4-2.5,6.4-6c0-6.7-1.1-10.1-6.3-14.5l-15-12.6c-9.2-7.8-10.5-14.2-10.5-26.1,0-14,8.9-20.4,25.4-20.4s25.3,6.4,25.3,20.4v9c0,3.4-1.9,5.3-5.2,5.3h-8.5c-3.3,0-5.2-1.9-5.2-5.3v-9c0-3.5-2.2-6.1-6.4-6.1s-6.4,2.6-6.4,6.1C1244.4,990,1245.4,993.5,1250.6,997.8Z"/>
    </g>
  </g>
  <g>
    <rect class="e" x="282.3" y="1208.7" width="95" height="95"/>
    <line class="f" x1="240.3" y1="1371.2" x2="1442.3" y2="1371.2"/>
    <path class="g" d="M299.6,1258.2a3.3,3.3,0,0,1,0-4.7l4.5-4.6a3.2,3.2,0,0,1,4.6,0l14.1,14.4,30.3-30.9a3.2,3.2,0,0,1,4.6,0l4.6,4.7a3.4,3.4,0,0,1,0,4.6l-37.2,37.9a3.1,3.1,0,0,1-4.5,0Z"/>
    <g>
      <path class="h" d="M470,1210.9c3.3,0,5.2,1.9,5.2,5.2v3.9c0,3.3-1.9,5.2-5.2,5.2H451.4V1250h13.7c3.3,0,5.3,2,5.3,5.3v3.8c0,3.4-2,5.3-5.3,5.3H451.4v24.8H470c3.3,0,5.2,1.9,5.2,5.3v3.8c0,3.3-1.9,5.2-5.2,5.2H437.7c-3.3,0-5.2-1.9-5.2-5.2v-82.2c0-3.3,1.9-5.2,5.2-5.2Z"/>
      <path class="h" d="M515.9,1216.1c0-3.3,1.9-5.2,5.3-5.2h7.1c3.4,0,5.3,1.9,5.3,5.2v82.2c0,3.3-1.9,5.2-5.3,5.2h-8.5c-3.2,0-4.5-1.6-5.3-3.8l-9.6-27.6-6.3-22.3-1.2.2,1.9,23v25.3c0,3.3-1.9,5.2-5.3,5.2h-7.1c-3.4,0-5.3-1.9-5.3-5.2v-82.2c0-3.3,1.9-5.2,5.3-5.2h8.5c3.2,0,4.5,1.6,5.3,3.8l9.6,27.7,6.3,22.2,1.2-.2-1.9-22.9Z"/>
      <path class="h" d="M589.3,1254.3c3.3,0,5.2,1.9,5.2,5.2v24.3c0,14-8.8,20.4-25.3,20.4s-25.4-6.4-25.4-20.4v-53.2c0-14,8.9-20.4,25.4-20.4s25.3,6.4,25.3,20.4v7.8c0,3.3-1.9,5.2-5.2,5.2h-8.5c-3.3,0-5.2-1.9-5.2-5.2v-7.8c0-3.5-2.2-6-6.4-6s-6.4,2.5-6.4,6v53.2c0,3.5,2.2,6.1,6.4,6.1s6.4-2.6,6.4-6.1v-15.2h-1.2c-3.3,0-5.2-1.9-5.2-5.2v-3.9c0-3.3,1.9-5.2,5.2-5.2Z"/>
      <path class="h" d="M637.5,1298.9l-1.5-12.8H620.6l-1.5,12.8c-.4,3.6-2.8,4.6-5.3,4.6h-7.6c-3.9,0-5.8-2.6-5.2-6.5l12.3-81.1c.5-3.7,2.5-5,5.4-5h19.2c3,0,4.9,1.3,5.4,5l12.3,81.1c.6,3.9-1.3,6.5-5.1,6.5h-7.7C640.3,1303.5,637.9,1302.5,637.5,1298.9Zm-15.2-27.1h11.9l-1.7-14.6L629,1223h-1.3l-3.6,34.2Z"/>
      <path class="h" d="M707.5,1254.3c3.4,0,5.3,1.9,5.3,5.2v24.3c0,14-8.8,20.4-25.4,20.4s-25.3-6.4-25.3-20.4v-53.2c0-14,8.8-20.4,25.3-20.4s25.4,6.4,25.4,20.4v7.8c0,3.3-1.9,5.2-5.3,5.2h-8.4c-3.3,0-5.3-1.9-5.3-5.2v-7.8c0-3.5-2.1-6-6.4-6s-6.4,2.5-6.4,6v53.2c0,3.5,2.2,6.1,6.4,6.1s6.4-2.6,6.4-6.1v-15.2h-1.1c-3.3,0-5.3-1.9-5.3-5.2v-3.9c0-3.3,2-5.2,5.3-5.2Z"/>
      <path class="h" d="M742,1298.3c0,3.3-1.9,5.2-5.3,5.2h-8.4c-3.3,0-5.3-1.9-5.3-5.2v-82.2c0-3.3,2-5.2,5.3-5.2h8.4c3.4,0,5.3,1.9,5.3,5.2Z"/>
      <path class="h" d="M786.5,1216.1c0-3.3,1.9-5.2,5.3-5.2h7.1c3.4,0,5.3,1.9,5.3,5.2v82.2c0,3.3-1.9,5.2-5.3,5.2h-8.5c-3.2,0-4.5-1.6-5.3-3.8l-9.6-27.6-6.3-22.3-1.2.2,1.9,23v25.3c0,3.3-1.9,5.2-5.3,5.2h-7.1c-3.4,0-5.3-1.9-5.3-5.2v-82.2c0-3.3,1.9-5.2,5.3-5.2H766c3.2,0,4.5,1.6,5.3,3.8l9.6,27.7,6.3,22.2,1.2-.2-1.9-22.9Z"/>
      <path class="h" d="M859.9,1254.3c3.3,0,5.2,1.9,5.2,5.2v24.3c0,14-8.8,20.4-25.3,20.4s-25.4-6.4-25.4-20.4v-53.2c0-14,8.9-20.4,25.4-20.4s25.3,6.4,25.3,20.4v7.8c0,3.3-1.9,5.2-5.2,5.2h-8.5c-3.3,0-5.2-1.9-5.2-5.2v-7.8c0-3.5-2.2-6-6.4-6s-6.4,2.5-6.4,6v53.2c0,3.5,2.1,6.1,6.4,6.1s6.4-2.6,6.4-6.1v-15.2H845c-3.3,0-5.2-1.9-5.2-5.2v-3.9c0-3.3,1.9-5.2,5.2-5.2Z"/>
    </g>
  </g>
  <g>
    <path class="i" d="M1269.5,454l-2.7,8.9L1186.1,439l14.8-50.2,80.8,23.9Zm-12.6-18.3a8,8,0,1,0-10,5.5A8.1,8.1,0,0,0,1256.9,435.7Z"/>
    <polygon class="j" points="1308.5 322.6 1281.7 412.7 1200.9 388.8 1230.3 289.7 1311.1 313.7 1308.5 322.6"/>
    <path class="c" d="M1269.5,454l22.5,6.7a22,22,0,0,0,5.2,21.5l121.7,36.1a21.6,21.6,0,0,0,10-5.3,22,22,0,0,0,3.6-28.1l4-1.3a22.7,22.7,0,0,0,10-5.4,20.7,20.7,0,0,0,6.1-9.8,22.1,22.1,0,0,0-2.5-18.2l4-1.4a22.6,22.6,0,0,0,10-5.3,21.6,21.6,0,0,0,6.1-9.9,21.8,21.8,0,0,0-2.6-18.2l4.1-1.4a21.9,21.9,0,0,0,16.1-15.2,22.2,22.2,0,0,0-5.2-21.6,22.7,22.7,0,0,0-9.7-5.8l-89-26.4,20.4-69.1a22,22,0,0,0-31.6-25.6,21.7,21.7,0,0,0-10.7,13.1s-6.2,25.5-9.9,33.4-21.7,32.3-21.7,32.3l-21.9-6.5Z"/>
    <path class="k" d="M1256.9,435.7a8,8,0,1,1-5.4-10A8.1,8.1,0,0,1,1256.9,435.7Z"/>
  </g>
</svg>
