<svg xmlns="http://www.w3.org/2000/svg" xmlns:xlink="http://www.w3.org/1999/xlink" viewBox="0 0 4897.5123 4965.0115" class="gabby">
	<defs>
		<style>
			.a,.b,.d,.e,.o,.p{fill:none;}.b{stroke:#495077;stroke-width:12.3094px;}.b,.d,.e,.n,.o,.p{stroke-linecap:round;}.b,.d,.e,.p{stroke-miterlimit:10;}.c{clip-path:url(#a);}.d,.e,.p{stroke:#d9c2b1;}.d{stroke-width:37.2947px;}.e{stroke-width:100px;}.f{clip-path:url(#b);}.g{clip-path:url(#c);}.h{fill:#775e48;}.i{fill:#9d7b60;}.j{fill:#dcc1b2;}.k{fill:#dc6172;}.l{fill:#fff;}.m{fill:#050606;}.n{fill:#231f20;}.n,.o{stroke:#231f20;stroke-linejoin:round;stroke-width:7.7697px;}.p{stroke-width:80px;}.q{clip-path:url(#d);}.r{fill:#f2d176;}.s{fill:#66c7c7;}.t{fill:#495078;}
		</style>
		<clipPath id="a">
			<rect class="a" x="67.8914" y="1316.0608" width="1829.8174" height="4012.9507" transform="translate(1965.6001 6645.0724) rotate(-180)"/>
		</clipPath>
		<clipPath id="b">
			<polygon class="a" points="81.495 3499.898 1957.86 3162.626 1957.86 953.376 81.495 1290.649 81.495 3499.898"/>
		</clipPath>
		<clipPath id="c">
			<polygon class="a" points="71.682 3505.209 1948.047 3167.937 1948.047 958.688 71.682 1295.96 71.682 3505.209"/>
		</clipPath>
		<clipPath id="d">
			<path class="a" d="M4564.1182,960.1562A284.5893,284.5893,0,0,0,4642.81,763.3886c0-157.7571-127.8884-285.6455-285.6464-285.6455a284.21,284.21,0,0,0-142.7388,38.2608c-20.1617-138.0171-138.98-244.01-282.5923-244.01a284.4069,284.4069,0,0,0-179.8192,63.7516,285.6411,285.6411,0,0,0-328.3909-22.1076c-51.6858-73.4793-137.0718-121.541-233.7344-121.541-127.0982,0-234.7549,83.0342-271.82,197.7969a287.877,287.877,0,0,0-35.3123-2.2511c-107.1548,0-200.4747,59.0388-249.3513,146.3284q-6.9208-.36-13.93-.3715c-145.4068,0-263.2821,117.8753-263.2821,263.2821a263.7359,263.7359,0,0,0,8.13,65.11c-107.5292,40.993-183.9492,145.0156-183.9492,266.9408,0,121.9795,76.4861,226.0416,184.0914,266.9961a284.4679,284.4679,0,0,0-26.93,121.1014c0,157.758,127.8884,285.6455,285.6464,285.6455a286.1452,286.1452,0,0,0,69.7781-8.6214,285.3358,285.3358,0,0,0,342.5587,6.86c48.4123,88.9075,142.6716,149.2453,251.03,149.2453a284.7256,284.7256,0,0,0,204.5425-86.3492,285.2068,285.2068,0,0,0,229.61,115.7417c138.6276,0,254.1549-98.7656,280.1435-229.7616a284.2235,284.2235,0,0,0,142.642,38.2055c148.8531,0,271.0569-113.8747,284.385-259.2509a293.0671,293.0671,0,0,0,65.2837,7.4084c161.4652,0,292.3585-130.8933,292.3585-292.3585C4785.5123,1106.81,4691.2826,991.871,4564.1182,960.1562Z"/>
		</clipPath>
	</defs>
	<line class="b" x1="512.9938" y1="3585.734" x2="328.5323" y2="3543.166"/>
	<line class="b" x1="502.3518" y1="3765.3807" x2="296.6063" y2="3765.3807"/>
	<line class="b" x1="502.3518" y1="3929.8256" x2="335.627" y2="3993.6776"/>
	<line class="b" x1="576.0144" y1="3465.124" x2="418.9894" y2="3370.1499"/>
	<line class="b" x1="569.8499" y1="4057.5291" x2="456.2364" y2="4188.7805"/>
	<g class="c">
		<path class="d" d="M981.2623,3058.5072S843.3339,3767.8531,725.11,3940.2635"/>
		<line class="e" x1="1179.4595" y1="4235.8243" x2="1137.7382" y2="5007.6686"/>
		<g class="f">
			<g class="g">
				<polygon class="h" points="1297.245 3166.582 1152.074 3117.592 821.705 3125.569 759.361 2867.781 1222.306 2641.794 1332.922 2378.762 1514.047 2378.762 1498.251 2772.672 1458.613 3002.362 1297.245 3166.582"/>
				<path class="i" d="M538.8235,2239.4941c17.325,5.9343,46.3069-68.2683,63.5133-33.554,65.1024,131.3452,117.5971,513.2958,180.5614,543.144,10.0954,241.8755,38.8071,376.4852,38.8071,376.4852-294.1975-23.6765-282.8818-355.1442-282.8818-355.1442Z"/>
				<path class="j" d="M970.6772,2913.4585h.0007c188.2539,0,346.1634-141.5739,366.0086-328.1454l27.6379-259.833c2.0908-391.7321-147.3831-405.4824-366.0086-405.4824H789.3074c-136.4781,0-242.87,117.866-228.4827,253.1244l43.8439,412.191C624.5138,2771.8846,782.4233,2913.4585,970.6772,2913.4585Z"/>
				<path class="i" d="M1297.2452,3166.5818s90.9242-426.1729,6.06-1124.623L560.2915,2247.1933,537.661,2389.251,469.77,2177.6443s-95.3926-346.4116,171.0433-439.6682c441.9329-154.6833,712.7268,131.4993,712.7268,131.4993s248.085,23.6763,248.085,183.4912-21.498,758.4711-21.498,758.4711S1591.4419,3142.9056,1297.2452,3166.5818Z"/>
			</g>
		</g>
		<line class="e" x1="953.0035" y1="4236.1191" x2="970.76" y2="5031.6165"/>
		<path class="k" d="M877.51,4235.8243h408.5272a61.5842,61.5842,0,0,0,60.8516-71.0554L1169.0173,3021.9521a61.5843,61.5843,0,0,0-60.8516-52.1131H1002.02a61.5842,61.5842,0,0,0-61.222,54.9141L816.2882,4167.57A61.5843,61.5843,0,0,0,877.51,4235.8243Z"/>
		<circle class="l" cx="1085.4478" cy="2442.0163" r="92.6917"/>
		<circle class="m" cx="1081.6281" cy="2477.3614" r="61.3044"/>
		<circle class="l" cx="770.1805" cy="2442.0163" r="92.6917"/>
		<circle class="m" cx="766.3608" cy="2477.3614" r="61.3044"/>
		<path class="n mouth" d="M995.2385,2686.8689c48.5529,86.3054-156.0884-5.0236-156.0884-5.0236S946.3281,2599.9279,995.2385,2686.8689Z"/>
		<path class="o" d="M1245.6247,2314.6794s-31.9024-75.5322-98.8724-50.9021"/>
		<path class="o" d="M759.5923,2255.5674s-50.9021-18.0732-95.2362,50.8965"/>
		<ellipse class="k belly bounce" cx="907.1955" cy="3788.3374" rx="280.4166" ry="359.5213"/>
		<path class="p" d="M1172.3729,3043.5115c53.2553,131.4823,136.682,251.648,169.9794,390.8146,33.3018,139.185-406.0674,496.0239-424.0338,527.4255"/>
	</g>
	<circle class="l" cx="2047.0407" cy="1461.6986" r="62.2694"/>
	<circle class="l" cx="1848.7342" cy="1566.292" r="49.1492"/>
	<circle class="l" cx="1770.8941" cy="1764.2365" r="38.4981"/>
	<ellipse class="l" cx="3486.0932" cy="1128.9318" rx="1084.0258" ry="663.668"/>
	<circle class="l" cx="2619.4739" cy="796.8813" r="263.2817"/>
	<circle class="l" cx="4357.1634" cy="763.3892" r="285.6461"/>
	<circle class="l" cx="4493.1541" cy="1243.7949" r="292.3579"/>
	<circle class="l" cx="2882.7556" cy="673.2888" r="285.6461"/>
	<circle class="l" cx="2868.8025" cy="1569.0351" r="285.6461"/>
	<circle class="l" cx="3189.8878" cy="477.743" r="285.6461"/>
	<circle class="l" cx="3572.1929" cy="557.6396" r="285.6461"/>
	<circle class="l" cx="2466.0184" cy="1128.9318" r="285.6461"/>
	<circle class="l" cx="2623.1803" cy="1517.0291" r="285.6461"/>
	<circle class="l" cx="3286.5467" cy="1664.5131" r="285.6461"/>
	<circle class="l" cx="3720.6995" cy="1693.9054" r="285.6461"/>
	<circle class="l" cx="3931.8331" cy="557.6396" r="285.6461"/>
	<circle class="l" cx="4143.4851" cy="1502.349" r="285.6461"/>
	<g class="q">
		<path class="r" d="M3509.23,1992.645H3407.4452V635.5048a50.8924,50.8924,0,0,1,50.8923-50.8923h0a50.8923,50.8923,0,0,1,50.8922,50.8923Z"/>
	</g>
	<path class="s" d="M4178.8974,1043.57H3182.643a27.8773,27.8773,0,0,1-27.8773-27.8772V718.2994a27.8773,27.8773,0,0,1,27.8773-27.8773h996.2544a27.8775,27.8775,0,0,1,17.6034,6.261L4379.0937,845.38a27.8773,27.8773,0,0,1,0,43.2325l-182.5929,148.6964A27.8769,27.8769,0,0,1,4178.8974,1043.57Z"/>
	<path class="s" d="M2723.4786,1434.3147H3719.733a27.8772,27.8772,0,0,0,27.8773-27.8772V1109.0446a27.8773,27.8773,0,0,0-27.8773-27.8773H2723.4786a27.877,27.877,0,0,0-17.6034,6.2611l-182.5929,148.6964a27.8773,27.8773,0,0,0,0,43.2325l182.5929,148.6964A27.8769,27.8769,0,0,0,2723.4786,1434.3147Z"/>
	<path class="t" d="M3378.7,927.2463l-2.3745-19.791h-23.749l-2.3745,19.791c-.5938,5.541-4.354,7.1245-8.1143,7.1245h-11.8745c-5.937,0-8.9057-4.1562-7.9165-10.0932l18.999-125.4727c.792-5.7392,3.76-7.7182,8.3125-7.7182h29.6856c4.5522,0,7.5205,1.979,8.3125,7.7182l18.999,125.4727c.9893,5.937-1.9795,10.0932-7.9165,10.0932h-11.8745C3383.0541,934.3708,3379.2939,932.7873,3378.7,927.2463Zm-23.5507-41.956h18.4052l-2.5727-22.5615-5.541-52.8414h-1.9795l-5.5411,52.8414Z"/><path class="t" d="M3429.7578,934.3708c-5.1456,0-8.1143-2.9687-8.1143-8.1142V799.2009c0-5.146,2.9687-8.1142,8.1143-8.1142h31.0712c25.53,0,39.1856,9.895,39.1856,31.4668v80.35c0,21.5717-13.6553,31.4672-39.1856,31.4672Zm31.0712-22.1655c6.5313,0,9.8955-3.958,9.8955-9.3017v-80.35c0-5.3433-3.3642-9.3013-9.8955-9.3013h-9.895v98.9531Z"/><path class="t" d="M3599.163,821.5642v82.3291c0,21.5718-13.6552,31.4673-39.1855,31.4673s-39.1856-9.8955-39.1856-31.4673V821.5642c0-21.5718,13.6558-31.4673,39.1856-31.4673S3599.163,799.9924,3599.163,821.5642Zm-49.0805,0v82.3291c0,5.3433,3.3642,9.3018,9.895,9.3018s9.8955-3.9585,9.8955-9.3018V821.5642c0-5.3437-3.3643-9.3018-9.8955-9.3018S3550.0825,816.2205,3550.0825,821.5642Z"/><path class="t" d="M3649.2309,884.8943v41.3623c0,5.1455-2.9688,8.1142-8.1143,8.1142h-13.062c-5.1455,0-8.1142-2.9687-8.1142-8.1142V799.2009c0-5.146,2.9687-8.1142,8.1142-8.1142h29.0923c25.53,0,39.1856,9.895,39.1856,31.4668V853.427c0,21.5718-13.6553,31.4673-39.1856,31.4673Zm7.916-22.1655c6.5313,0,9.8955-3.9581,9.8955-9.3018V822.5535c0-5.3433-3.3642-9.3013-9.8955-9.3013h-7.916v49.4766Z"/><path class="t" d="M3761.4418,813.2522V926.2566c0,5.1455-2.9687,8.1142-8.1142,8.1142h-13.062c-5.1455,0-8.1143-2.9687-8.1143-8.1142V813.2522h-18.8008c-5.1455,0-8.1142-2.9688-8.1142-8.1143v-5.937c0-5.146,2.9687-8.1142,8.1142-8.1142h66.8921c5.146,0,8.1143,2.9682,8.1143,8.1142v5.937c0,5.1455-2.9683,8.1143-8.1143,8.1143Z"/><path class="t" d="M3830.5087,926.2566c0,5.1455-2.9687,8.1142-8.1142,8.1142h-13.062c-5.1455,0-8.1138-2.9687-8.1138-8.1142V799.2009c0-5.146,2.9683-8.1142,8.1138-8.1142h13.062c5.1455,0,8.1142,2.9682,8.1142,8.1142Z"/><path class="t" d="M3929.6577,821.5642v82.3291c0,21.5718-13.6553,31.4673-39.1856,31.4673s-39.1851-9.8955-39.1851-31.4673V821.5642c0-21.5718,13.6553-31.4673,39.1851-31.4673S3929.6577,799.9924,3929.6577,821.5642Zm-49.0806,0v82.3291c0,5.3433,3.3642,9.3018,9.895,9.3018s9.8955-3.9585,9.8955-9.3018V821.5642c0-5.3437-3.3642-9.3018-9.8955-9.3018S3880.5771,816.2205,3880.5771,821.5642Z"/><path class="t" d="M4003.4741,799.2009c0-5.146,2.9687-8.1142,8.1142-8.1142h11.083c5.1455,0,8.1138,2.9682,8.1138,8.1142V926.2566c0,5.1455-2.9683,8.1142-8.1138,8.1142h-13.26c-4.9478,0-6.9268-2.5727-8.1143-5.937l-14.8433-42.748-9.6972-34.4356-1.979.3955,2.9687,35.4253v39.1856c0,5.1455-2.9687,8.1142-8.1142,8.1142h-11.083c-5.1456,0-8.1138-2.9687-8.1138-8.1142V799.2009c0-5.146,2.9682-8.1142,8.1138-8.1142h13.26c4.9478,0,6.9268,2.5727,8.1143,5.937l14.8432,42.748,9.6973,34.4356,1.979-.396-2.9687-35.4253Z"/><path class="t" d="M2878.0024,1286.53v41.3623c0,5.1455-2.9688,8.1143-8.1143,8.1143h-13.062c-5.1455,0-8.1142-2.9688-8.1142-8.1143V1200.8367c0-5.146,2.9687-8.1143,8.1142-8.1143h29.0923c25.53,0,39.1855,9.895,39.1855,31.4668v30.8735c0,21.5718-13.6552,31.4673-39.1855,31.4673Zm7.916-22.1655c6.5312,0,9.8955-3.958,9.8955-9.3018v-30.8735c0-5.3433-3.3643-9.3013-9.8955-9.3013h-7.916v49.4766Z"/><path class="t" d="M2992.5878,1328.8821l-2.3745-19.791h-23.749l-2.3745,19.791c-.5938,5.541-4.354,7.1245-8.1143,7.1245H2944.101c-5.937,0-8.9057-4.1563-7.9165-10.0933l18.999-125.4726c.792-5.7393,3.76-7.7183,8.3125-7.7183h29.6856c4.5522,0,7.5205,1.979,8.3125,7.7183l18.999,125.4726c.9893,5.937-1.9795,10.0933-7.9165,10.0933h-11.8745C2996.9418,1336.0066,2993.1816,1334.4231,2992.5878,1328.8821Zm-23.5508-41.9561h18.4053l-2.5727-22.5615-5.541-52.8413h-1.9795l-5.5411,52.8413Z"/><path class="t" d="M3099.4545,1276.4368l18.01,47.8935c1.583,4.1558.5937,11.6763-7.5205,11.6763H3096.288c-4.1557,0-6.7285-1.979-7.916-5.3433l-17.6138-49.477h-5.937v46.706c0,5.1455-2.9687,8.1143-8.1142,8.1143h-13.062c-5.1455,0-8.1138-2.9688-8.1138-8.1143V1200.8367c0-5.146,2.9683-8.1143,8.1138-8.1143h31.0712c25.53,0,39.1856,9.895,39.1856,31.4668v25.53C3113.9018,1262.781,3108.954,1271.489,3099.4545,1276.4368Zm-24.7383-17.4161c6.5313,0,9.8956-3.958,9.8956-9.3012v-25.53c0-5.3433-3.3643-9.3013-9.8956-9.3013h-9.895v44.1328Z"/><path class="t" d="M3192.666,1192.7224c5.1455,0,8.1142,2.9683,8.1142,8.1143v5.937c0,5.1455-2.9687,8.1142-8.1142,8.1142H3163.97v38.3936h21.1757c5.1456,0,8.1143,2.9687,8.1143,8.1142v5.9375c0,5.1456-2.9687,8.1138-8.1143,8.1138H3163.97v38.3941h28.6963c5.1455,0,8.1142,2.9687,8.1142,8.1142v5.937c0,5.1455-2.9687,8.1143-8.1142,8.1143h-49.8726c-5.1455,0-8.1138-2.9688-8.1138-8.1143V1200.8367c0-5.146,2.9683-8.1143,8.1138-8.1143Z"/><path class="t" d="M3268.6577,1200.8367c0-5.146,2.9687-8.1143,8.1142-8.1143h11.083c5.1455,0,8.1138,2.9683,8.1138,8.1143v127.0556c0,5.1455-2.9683,8.1143-8.1138,8.1143h-13.26c-4.9478,0-6.9268-2.5728-8.1143-5.937l-14.8433-42.7481-9.6972-34.4355-1.979.3955,2.9687,35.4253v39.1855c0,5.1455-2.9687,8.1143-8.1142,8.1143h-11.0831c-5.1455,0-8.1137-2.9688-8.1137-8.1143V1200.8367c0-5.146,2.9682-8.1143,8.1137-8.1143h13.26c4.9478,0,6.9268,2.5728,8.1143,5.937l14.8432,42.7481,9.6973,34.4355,1.979-.396-2.9687-35.4253Z"/><path class="t" d="M3365.0346,1214.8879v113.0044c0,5.1455-2.9687,8.1143-8.1143,8.1143h-13.062c-5.1455,0-8.1142-2.9688-8.1142-8.1143V1214.8879h-18.8008c-5.1455,0-8.1143-2.9687-8.1143-8.1142v-5.937c0-5.146,2.9688-8.1143,8.1143-8.1143h66.8921c5.146,0,8.1142,2.9683,8.1142,8.1143v5.937c0,5.1455-2.9682,8.1142-8.1142,8.1142Z"/><path class="t" d="M3434.102,1327.8923c0,5.1455-2.9688,8.1143-8.1143,8.1143h-13.062c-5.1455,0-8.1142-2.9688-8.1142-8.1143V1200.8367c0-5.146,2.9687-8.1143,8.1142-8.1143h13.062c5.1455,0,8.1143,2.9683,8.1143,8.1143Z"/><path class="t" d="M3507.9189,1200.8367c0-5.146,2.9687-8.1143,8.1142-8.1143h11.083c5.1456,0,8.1138,2.9683,8.1138,8.1143v127.0556c0,5.1455-2.9682,8.1143-8.1138,8.1143h-13.26c-4.9478,0-6.9268-2.5728-8.1143-5.937l-14.8432-42.7481-9.6973-34.4355-1.979.3955,2.9687,35.4253v39.1855c0,5.1455-2.9687,8.1143-8.1142,8.1143h-11.083c-5.1455,0-8.1143-2.9688-8.1143-8.1143V1200.8367c0-5.146,2.9688-8.1143,8.1143-8.1143h13.26c4.9478,0,6.9268,2.5728,8.1143,5.937l14.8428,42.7481,9.6977,34.4355,1.979-.396-2.9687-35.4253Z"/><path class="t" d="M3626.2631,1259.8127c5.146,0,8.1143,2.9683,8.1143,8.1143v37.602c0,21.5718-13.6553,31.4673-39.1856,31.4673s-39.185-9.8955-39.185-31.4673V1223.2c0-21.5717,13.6552-31.4672,39.185-31.4672s39.1856,9.8955,39.1856,31.4672v12.0723c0,5.1455-2.9683,8.1143-8.1143,8.1143h-13.0615c-5.1455,0-8.1143-2.9688-8.1143-8.1143V1223.2c0-5.3437-3.3642-9.3017-9.8955-9.3017s-9.895,3.958-9.895,9.3017v82.3291c0,5.3433,3.3643,9.3018,9.895,9.3018s9.8955-3.9585,9.8955-9.3018v-23.5507h-1.7812c-5.1455,0-8.1143-2.9688-8.1143-8.1143v-5.937c0-5.146,2.9688-8.1143,8.1143-8.1143Z"/></svg>