<svg xmlns="http://www.w3.org/2000/svg" viewBox="0 0 388 370">
    <defs>
        <style>.ee39c918-6b57-4dd7-a222-e2ec1914522c{fill:#6aada4;}</style>
    </defs>
    <g id="be01f28d-2643-453b-a15e-deb9ac72dcc8" data-name="Layer 2">
        <g id="a6de72a4-f864-43f2-bce2-d6fd8e1e9e32" data-name="Layer 1">
            <path class="ee39c918-6b57-4dd7-a222-e2ec1914522c" d="M299.9,232.8v-1.1a52.1,52.1,0,0,0-.3-5.5v-1.1c-.2-2.1-.5-4-.8-5.7s-.8-3.6-1.4-5.6l-.3-1.1a46,46,0,0,0-1.9-5.2l-.3-.8c-.7-1.7-1.3-3.1-2-4.5l-.3-.6-.2-.5-1.4-2.5-1.7-2.6-.6-1c-1.1-1.6-2.2-3.1-3.4-4.6l-.7-.9c-1.6-1.8-2.9-3.3-4.2-4.6l-48.2-47.8a11.4,11.4,0,0,0-15.8,0l-8.3,8.4,56.1,55.7c1.1,1.2,2.3,2.5,3.6,4.1l.6.9.3.4a28.4,28.4,0,0,1,2.2,3.4l.2.2.5,1a35.5,35.5,0,0,1,2.1,4.4l.4,1c.5,1.3.9,2.7,1.2,3.6l.2.6.3,1.6a20.5,20.5,0,0,1,.5,2.4v.7c0,.1.1.2.1.4v1a44.9,44.9,0,0,1-1.9,19v.4a52.6,52.6,0,0,1-3.9,8.4l-.7,1a41.6,41.6,0,0,1-5.9,7.5,43,43,0,0,1-8.2,6.4l-1,.5-.4.2a43.6,43.6,0,0,1-8.3,3.7,11.3,11.3,0,0,0-7.9,10.7,46.7,46.7,0,0,0,2.1,13.8,61.7,61.7,0,0,0,6.2-1.1l.8-.2,1.5-.3a6.5,6.5,0,0,0,1.6-.3,65.9,65.9,0,0,0,8.2-2.9l1.4-.5,1.3-.5a66.4,66.4,0,0,0,19-13.3,59.3,59.3,0,0,0,6.3-7.3l.8-1.2.7-1.1a48.8,48.8,0,0,0,3.5-5.6c.5-.9.9-1.8,1.3-2.7l.3-.5c.9-1.9,1.6-3.7,2.3-5.4a33.8,33.8,0,0,0,1.1-3.4l.5-1.2c.1-.4.3-.8.4-1.2l.9-3.6c0-.3.1-.6.1-.9l.5-2.8c.1-.3.1-.5.2-.8s.3-2,.4-3.1.1-2.1.1-3.2v-1.8A2.2,2.2,0,0,1,299.9,232.8ZM328.7,54.2A194.4,194.4,0,0,0,.3,183,194.8,194.8,0,0,0,107.1,367.8a15.5,15.5,0,0,0,8.9,1.5,85.4,85.4,0,0,0,70.5-66.4l.3-.9a2.3,2.3,0,0,0,.1-.7,11.3,11.3,0,0,0,.3-1.8l.2-1.6a5.2,5.2,0,0,0,.2-1.1l.2-1.1a16.2,16.2,0,0,0,.2-1.8v-.4c0-.5.1-.9.1-1.4a6.6,6.6,0,0,0,.1-1.4V289c0-.9.1-1.8.1-2.6v-3.5a83.6,83.6,0,0,0-2-16.5,70.5,70.5,0,0,0-2.5-9.2l-.3-.9c-.3-1-.7-2-1.1-3a24.4,24.4,0,0,0-1-2.4l-.5-1.2a87.3,87.3,0,0,0-15.4-23.3l-3.6-3.5a3.6,3.6,0,0,1-1-1.1l-37-36.9-2.8-3.1-.8-1-1.6-2.3-.5-.7-.4-.6c-.4-.7-.9-1.4-1.3-2.2l-.7-1.4-1.1-2.3-.5-1.3a13.4,13.4,0,0,1-.9-2.6l-.2-.4a1.9,1.9,0,0,1-.2-.8,24.9,24.9,0,0,1-1-3.9c0-.2-.1-.5-.1-.8V161a52.1,52.1,0,0,1-.6-6.7,41.1,41.1,0,0,1,1-9.4,44.9,44.9,0,0,1,7.8-17.3,43.7,43.7,0,0,1,35-17.5,30,30,0,0,1,5.1.4L175,95.6l4.3-3.9a66.5,66.5,0,0,0-37.6-3.3,57.4,57.4,0,0,0-15.3,5.1c-25.7,12.6-40.5,38.9-37.7,67A21.3,21.3,0,0,0,89,163l.2,1.2.6,3.6v.6c.3,1.3.7,2.8,1.1,4.3l.3,1c.5,1.5,1,3.1,1.6,4.6l.7,1.6c.5,1.3,1.2,2.7,1.9,4.1l.6,1.3h.1l.6,1.2.6.9a26.1,26.1,0,0,0,1.7,2.8l.8,1.2c1,1.4,1.9,2.7,2.8,3.8l1.1,1.4c1.5,1.7,2.8,3.2,4.1,4.5L147,240.3a2.7,2.7,0,0,1,.8.7l1.1,1.1.8,1a59.8,59.8,0,0,1,10.6,16.4c.5,1.1.9,2.2,1.3,3.3l.2.3c.4,1.2.9,2.5,1.2,3.7l.3,1.1.2.6a15.5,15.5,0,0,1,.5,2.3,61.4,61.4,0,0,1-1.5,33.2q-.7,2.4-1.5,4.2c-.6,1.5-1.3,2.9-1.9,4.2A65.8,65.8,0,0,1,147.3,329a62.9,62.9,0,0,1-32.2,17.1h-.3a4.5,4.5,0,0,1-3-.4A172.8,172.8,0,0,1,21.7,194.2c0-95.1,77.4-172.5,172.5-172.5S366.7,99.1,366.7,194.2a172.8,172.8,0,0,1-89.3,151.1l-.7.4a3.1,3.1,0,0,1-1.2.4,5.3,5.3,0,0,1-1.5.1A62.9,62.9,0,0,1,241.6,329a61.1,61.1,0,0,1-11.8-16.6,42.7,42.7,0,0,1-2-4.2c-.5-1.2-.9-2.5-1.5-4.2a63.9,63.9,0,0,1-3.1-19.3,64.9,64.9,0,0,1,1.6-13.8c.2-1,.5-2,.7-3v-.3c.1-.3.1-.6.2-.8s.9-2.6,1.4-3.9a29.5,29.5,0,0,1,1.7-4.1,59.3,59.3,0,0,1,12.7-18.4l.4-.6,17.6-17.6a20.6,20.6,0,0,0-1.6-3.7l-.2-.3a29.4,29.4,0,0,0-1.7-2.6l-.6-.8a18.6,18.6,0,0,0-2.2-2.5l-8.1-8.2-19.9,20a81,81,0,0,0-8,9.4,85.2,85.2,0,0,0-9.7,16.4l-1.5,3.7c-.5,1.2-1,2.5-1.4,3.8-1,3-1.8,6-2.5,8.9a91.8,91.8,0,0,0-1.9,16.6v3.6a8.6,8.6,0,0,0,.1,1.5v2.5c0,.8.1,1.3.1,1.8v1.5l.3,1.8.3,2.1c.1.5.1.9.2,1.4a13.3,13.3,0,0,0,.4,2.4c0,.2.1.4.1.6v.2a6.4,6.4,0,0,0,.2.7,83.6,83.6,0,0,0,22.6,42.2,84.6,84.6,0,0,0,48.3,24.2,12.7,12.7,0,0,0,7.4-1.2c66.5-33.2,107.9-99.9,107.9-174A192.6,192.6,0,0,0,328.7,54.2ZM233.4,87.1a66.1,66.1,0,0,0-30.1,7.2l-3.5,1.9-.7.4-2.7,1.6a68.4,68.4,0,0,0-10.3,8.5l-1.5,1.5h-.2l-46.2,46.1a11.3,11.3,0,0,0,0,15.8l8.4,8.4,55.8-55.7a44.6,44.6,0,0,1,14.4-9.5,40.4,40.4,0,0,1,4.5-1.6l4.9-1.1a45.6,45.6,0,0,1,7.2-.6A43.2,43.2,0,0,1,264.3,123a43.7,43.7,0,0,1,12.5,36l14.9,14.9,3.9,4.2a67.6,67.6,0,0,0-15-71.4A66.4,66.4,0,0,0,233.4,87.1ZM96.7,212.2a55,55,0,0,1-3.8-4.2,67.4,67.4,0,0,0,15,71.4,66.4,66.4,0,0,0,40,19.1,46.7,46.7,0,0,0,2.1-13.8,11.3,11.3,0,0,0-7.9-10.7,43.7,43.7,0,0,1-18-10.8,44.6,44.6,0,0,1-12.5-36.1Z"/>
        </g>
    </g>
</svg>