<svg xmlns="http://www.w3.org/2000/svg" viewBox="0 0 79.9141 113.2901"><defs><style>.a{fill:#de6273;}.b{fill:#495077;}.c{fill:#66c7c7;}.d{fill:#73c3af;}.e{fill:#f2d176;}</style></defs><title>handsicon</title><polygon class="a" points="52.374 72.09 53.564 72.09 78.394 72.09 79.914 72.09 79.914 113.29 52.374 113.29 52.374 72.09"/><polygon class="b" points="49.029 56.16 49.029 113.29 25.201 113.29 25.201 102.32 24.216 102.32 24.226 98.02 24.216 56.16 49.029 56.16"/><polygon class="c" points="1.279 101.82 26.1 101.82 27.05 101.82 27.05 113.29 0 113.29 0 101.82 1.279 101.82"/><path class="d" d="M48.5293,15.77a2.93,2.93,0,1,0-5.8594,0V27.62h-1l-.0107-.5V7.56a2.93,2.93,0,1,0-5.8594,0V27.62h-1l-.01-.5V2.93a2.9253,2.9253,0,1,0-5.8506,0V27.62h-1l-.01-.5V7.39a2.93,2.93,0,0,0-5.86,0V39.4024l-4.51-6.4756V23.58a2.93,2.93,0,0,0-5.86,0v13.5a2.9493,2.9493,0,0,0,.9805,2.1728L15.91,43.27,26.71,56.16H48.14s.39-18.4932.39-20.5615Z"/><path class="e" d="M37.08,82.26V68.44a2.9313,2.9313,0,1,0-5.86,0v9.5625l-4.51,6.6436V51.85a2.9744,2.9744,0,0,0-2.9307-3.01,2.7144,2.7144,0,0,0-1.2256.2871c-.0937.0381-.1445.0664-.1933.0908l-.1045.0674c-.0547.0361-.11.0722-.1651.1162-.0849.0664-.167.13-.248.2021-.0537.0537-.126.126-.1983.208A2.9915,2.9915,0,0,0,20.85,51.85V72.56h-1l-.01-.5V47.28A2.9747,2.9747,0,0,0,16.9092,44.27a.3552.3552,0,0,1-.084.01.6878.6878,0,0,1-.1357.0108h-.0987a2.9817,2.9817,0,0,0-2.6015,2.99V72.56h-1l-.01-.5V52.02a2.9308,2.9308,0,1,0-5.8594,0V72.56h-1l-.0107-.5V60.43a2.9743,2.9743,0,0,0-2.93-3.01A2.9743,2.9743,0,0,0,.25,60.43V91a3.033,3.033,0,0,0,1.3115,2.5078l.2178.1485v8.164H25.6006l.0088-3.9746L36.1,84.4942A3.0228,3.0228,0,0,0,37.08,82.26Z"/><path class="c" d="M79.4141,61.54V31.7a2.93,2.93,0,1,0-5.86,0V43.55h-1l-.01-.5V23.49a2.93,2.93,0,1,0-5.8594,0V43.55h-1l-.0108-.5V18.86a2.9248,2.9248,0,1,0-5.85,0V43.55h-1l-.01-.5V23.32a2.93,2.93,0,1,0-5.86,0V55.333l-4.51-6.4756V39.51a2.9092,2.9092,0,0,0-2.6894-2.9121l-.2393.0019-.05-.02a2.9348,2.9348,0,0,0-2.8818,2.93v13.5a2.92,2.92,0,0,0,.9775,2.1709L54.043,68.2129l.02,3.877h23.832V64.125l.2188-.1484A2.9552,2.9552,0,0,0,79.4141,61.54Z"/></svg>