<svg id="fd362c59-a690-49a3-b74d-5ae499a560da" class="postbox-svg" role="img" xmlns="http://www.w3.org/2000/svg" viewBox="0 0 777 333">
	<defs>
		<style>.f31b5d7b-559f-4161-8817-beeed5a60716{fill:#484f77;}.e116ed4b-7a9e-4565-8aad-2b88568e2ebb{fill:#7d90ae;}.bb9a7015-8744-41f2-9e94-385d793a8fc8{fill:#7d90ad;}.adadf4b9-7ed8-4513-b2ff-0e5c3f998ebf{fill:#3f4857;}.b85186a0-3d5d-41df-a73c-43e13b834660{fill:#fff;}.f029cd6c-c72a-4c2d-b8d2-8308f4f18eba{fill:#6aada4;}.b66302e4-cac5-4154-b535-9f6072a82765{fill:#65c8c7;}.a06738d4-449b-41f5-9953-9b2fdad98a2e,.b9b71a0e-c0dc-41b0-afeb-aa2692d96431{fill:none;stroke:#d1ecf0;stroke-linecap:round;stroke-linejoin:round;stroke-width:3px;}.a06738d4-449b-41f5-9953-9b2fdad98a2e{stroke-dasharray:8.95 8.95;}</style>
	</defs>
	<path class="f31b5d7b-559f-4161-8817-beeed5a60716" d="M100.8,0h0A100.8,100.8,0,0,0,0,100.8V333.1H201.5V100.8A100.7,100.7,0,0,0,100.8,0Z"/>
	<path class="e116ed4b-7a9e-4565-8aad-2b88568e2ebb" d="M100.8,18a82.8,82.8,0,0,1,82.7,82.8V315.1H18V100.8A82.8,82.8,0,0,1,100.8,18m0-4.2a87.1,87.1,0,0,0-87,87V319.2H187.7V100.8a87,87,0,0,0-86.9-87Z"/>
	<polygon class="bb9a7015-8744-41f2-9e94-385d793a8fc8" points="166.6 129.5 35.3 129.5 43.6 116.3 158.3 116.3 166.6 129.5"/>
	<rect class="adadf4b9-7ed8-4513-b2ff-0e5c3f998ebf" x="43.3" y="129.5" width="115.4" height="11.08"/>
	<path class="b85186a0-3d5d-41df-a73c-43e13b834660" d="M60.9,77.4h6.2c3.7,0,5.4,2.2,5.4,4.9s-1.7,4.9-5.4,4.9H64.8v4.9H60.9Zm5.3,7.2a2.3,2.3,0,1,0,0-4.6H64.8v4.6Z"/>
	<path class="b85186a0-3d5d-41df-a73c-43e13b834660" d="M81.1,84.7c0-4.5,3.7-7.7,8.2-7.7s8.1,3.2,8.1,7.7a7.8,7.8,0,0,1-8.1,7.8A7.9,7.9,0,0,1,81.1,84.7Zm12.1,0c0-2.8-1.5-4.6-3.9-4.6s-4,1.8-4,4.6,1.5,4.7,4,4.7S93.2,87.5,93.2,84.7Z"/>
	<path class="b85186a0-3d5d-41df-a73c-43e13b834660" d="M106.1,90.5l.9-2.9a7.5,7.5,0,0,0,4.7,1.9c1.2,0,2.1-.4,2.1-1.5s-.6-1.3-2.8-1.8-4.5-2.6-4.5-4.8,2.1-4.4,5.4-4.4a8.9,8.9,0,0,1,4.9,1.5l-.8,2.7a8.6,8.6,0,0,0-4.1-1.3c-1.1,0-1.7.4-1.7,1.2s.4,1.1,2.1,1.5c3.7.8,5.1,2.4,5.1,5s-2.7,4.8-5.7,4.8A9,9,0,0,1,106.1,90.5Z"/>
	<path class="b85186a0-3d5d-41df-a73c-43e13b834660" d="M132.4,80.4h-4.8v-3h13.5v3h-4.8V92.1h-3.9Z"/>
	<rect class="bb9a7015-8744-41f2-9e94-385d793a8fc8" x="46.4" y="193.9" width="108.8" height="84.48"/>
	<polygon class="f029cd6c-c72a-4c2d-b8d2-8308f4f18eba" points="352 86.1 352 102.8 263.2 147 352 86.1"/>
	<path class="f029cd6c-c72a-4c2d-b8d2-8308f4f18eba" d="M263.2,147l89.4-13.9a1.9,1.9,0,0,0,1.5-1.7l.5-7.5Z"/>
	<path class="b66302e4-cac5-4154-b535-9f6072a82765" d="M263.2,147,366.9,95.3a.9.9,0,0,1,1,0l28.7,16.6a1.1,1.1,0,0,1-.3,2Z"/>
	<path class="b66302e4-cac5-4154-b535-9f6072a82765" d="M263.2,147l56.3-78.7a.9.9,0,0,1,1.1-.2l31.4,18Z"/>
	<path class="b9b71a0e-c0dc-41b0-afeb-aa2692d96431" d="M404.9,125.3h4.5"/>
	<path class="a06738d4-449b-41f5-9953-9b2fdad98a2e" d="M418.4,125.5c46.4-.4,112-10.7,125.6-60,2.2-7.9,2.6-16.6-.9-23.9-8.4-17.8-40.3-14.8-50.1.4-3.7,5.6-5.4,12.3-6.5,18.9-2.8,16-2.5,33.8,7.3,46.7,14.3,19.2,44.3,24.1,66.5,27,24.2,3.3,52.5,4,74.3-8.7,2.7-1.5,5.2-3.8,5.8-6.8s-2-6.6-5.1-6.1a7.5,7.5,0,0,0-3,1.7c-3.5,2.9-6.6,6.6-7.8,11-3.4,13.7,15.6,22.3,26.7,20.8,5.8-.8,11.2-3.7,16.1-7,16.1-11,27.6-23.1,47.5-26.8,7.9-1.5,16.1-2.7,24.1-2"/>
	<path class="b9b71a0e-c0dc-41b0-afeb-aa2692d96431" d="M743.3,111.2a35.4,35.4,0,0,1,4.4,1.1"/>
</svg>