<svg xmlns="http://www.w3.org/2000/svg" class="qbubble right" viewBox="0 0 330.8676 278.7512">
  <g data-name="qbubble-right">
    <path class="qbubble-shape" d="M131.206,0h49.5814a131.2061,131.2061,0,0,1,131.206,131.2061h0a130.6207,130.6207,0,0,1-26.8671,79.5476c0,.0014-2.7467,21.2349,45.7413,67.8216-74.1593,2.8524-91.5012-29.9431-91.5016-29.9441a130.6435,130.6435,0,0,1-58.5786,13.7811H131.206A131.2061,131.2061,0,0,1,0,131.2061H0A131.2061,131.2061,0,0,1,131.206,0Z"/>
    <path class="qmark" d="M192.9082,95.29c0,27.3237-25.74,33.4617-25.74,52.0735v5.94c0,5.148-2.97,8.118-8.1182,8.118h-7.5234c-5.1485,0-8.1182-2.97-8.1182-8.118v-3.7619c0-29.7,21.7793-33.0657,21.7793-51.4795V92.32c0-5.94-2.5732-10.4939-9.8994-10.4939s-9.8994,4.554-9.8994,10.4939v10.0979c0,5.148-2.9707,8.118-8.1182,8.118H125.7861c-5.1474,0-8.1181-2.97-8.1181-8.118V92.32c0-21.5818,12.0781-31.4817,37.62-31.4817s37.62,9.9,37.62,31.4817ZM155.09,176.0729c8.91,0,15.0479,6.1379,15.0479,15.0479S164,206.1686,155.09,206.1686s-15.0478-6.1379-15.0478-15.0478S146.18,176.0729,155.09,176.0729Z"/>
  </g>
</svg>