<svg xmlns="http://www.w3.org/2000/svg" viewBox="0 0 116.9795 91.3506"><defs><style>.a{fill:#de6273;}.b{fill:#fff;}.c{fill:#66c7c7;}.d{fill:#495077;}</style></defs><title>questionblock</title><path class="a" d="M116.98,50.1006V81.59a3.3348,3.3348,0,0,1-3.33,3.33h-5.31l-5.6406,6.4307L97.05,84.92h-34.9A3.34,3.34,0,0,1,58.82,81.59V50.1006a3.34,3.34,0,0,1,3.3291-3.33h51.5A3.3349,3.3349,0,0,1,116.98,50.1006Zm-11.18,14.71a4.3,4.3,0,1,0-4.3,4.3A4.3087,4.3087,0,0,0,105.8,64.8106Zm-13.6,0a4.3,4.3,0,1,0-4.3008,4.3A4.3032,4.3032,0,0,0,92.2,64.8106Zm-13.5908,0a4.3,4.3,0,1,0-4.3008,4.3A4.3089,4.3089,0,0,0,78.6094,64.8106Z"/><path class="b" d="M101.5,60.5a4.3052,4.3052,0,1,1-4.3,4.3106A4.3087,4.3087,0,0,1,101.5,60.5Z"/><path class="b" d="M87.8994,60.5a4.3052,4.3052,0,1,1-4.3,4.3106A4.3032,4.3032,0,0,1,87.8994,60.5Z"/><path class="b" d="M74.3086,60.5A4.3052,4.3052,0,1,1,70.01,64.8106,4.3089,4.3089,0,0,1,74.3086,60.5Z"/><path class="c" d="M83.6,40.5606a40.95,40.95,0,0,1-.47,6.21H62.1494a3.34,3.34,0,0,0-3.3291,3.33V77.86a41.1132,41.1132,0,0,1-39.5117-4.07L0,81.13,7.64,61.34A40.14,40.14,0,0,1,1.87,40.5606a40.8659,40.8659,0,0,1,81.73,0ZM48.22,50.13C47.64,41.55,58.3086,39.11,58.3086,28.4405c0-8.4307-6.4883-15.42-17.0088-15.2-8.94.21-16.21,5.62-16,16.35h10.81c0-3.38,2.3808-4.83,4.9-4.8994,2.3789,0,5.05,1.3,4.9,3.97-.5,8.28-11.6016,10.16-10.4512,21.47Zm.65,11.28c0-4.03-2.96-6.63-6.9912-6.63-4.0391,0-7.209,2.6-7.209,6.63,0,3.96,3.17,6.49,7.209,6.49C45.91,67.9,48.87,65.37,48.87,61.41Z"/><path class="d" d="M41.8789,54.78c4.0313,0,6.9912,2.6,6.9912,6.63,0,3.96-2.96,6.49-6.9912,6.49-4.0391,0-7.209-2.53-7.209-6.49C34.67,57.38,37.84,54.78,41.8789,54.78Z"/><path class="d" d="M58.3086,28.4405C58.3086,39.11,47.64,41.55,48.22,50.13H35.459C34.3086,38.82,45.41,36.9405,45.91,28.66c.1494-2.67-2.5215-3.97-4.9-3.97-2.52.0693-4.9,1.52-4.9,4.8994H25.3c-.21-10.73,7.06-16.14,16-16.35C51.82,13.0205,58.3086,20.01,58.3086,28.4405Z"/></svg>