<svg xmlns="http://www.w3.org/2000/svg" viewBox="0 0 692 451" role="img" aria-labelledby="statebuildingdesc">
  <desc id="statebuildingdesc">A very stately looking building, like a city hall or courthouse.</desc><defs><style>.b2702042-660f-4229-9679-b7e54bb63fed{fill:#d1ecee;}.b7cb79e3-0cd2-4812-a958-e162587f4129{fill:#73c3af;}.bb53abd9-9824-49f8-9a17-53cb0bd5ea73{fill:#66c7c7;}.fab01af3-b677-4b5a-bd11-799096806ee7{fill:#495077;}</style></defs><g id="e5c4cfd0-40b4-40d6-bb31-ad4ec7feca4a" data-name="Layer 2"><g id="b98491fc-f061-4c60-8d48-3e7a23579a18" data-name="Layer 1"><rect class="b2702042-660f-4229-9679-b7e54bb63fed" x="553.8" y="316.3" width="27.3" height="34.25"/><rect class="b2702042-660f-4229-9679-b7e54bb63fed" x="612.6" y="316.3" width="27.3" height="34.25"/><rect class="b2702042-660f-4229-9679-b7e54bb63fed" x="612.6" y="250.4" width="27.3" height="34.25"/><rect class="b2702042-660f-4229-9679-b7e54bb63fed" x="553.8" y="250.4" width="27.3" height="34.25"/><rect class="b2702042-660f-4229-9679-b7e54bb63fed" x="51.5" y="316.3" width="27.3" height="34.25"/><rect class="b2702042-660f-4229-9679-b7e54bb63fed" x="110.2" y="316.3" width="27.3" height="34.25"/><rect class="b2702042-660f-4229-9679-b7e54bb63fed" x="110.2" y="250.4" width="27.3" height="34.25"/><rect class="b2702042-660f-4229-9679-b7e54bb63fed" x="51.5" y="250.4" width="27.3" height="34.25"/><polygon class="b2702042-660f-4229-9679-b7e54bb63fed" points="250.5 191.3 254.8 354.7 209 354.7 213.4 191.3 250.5 191.3"/><polygon class="b2702042-660f-4229-9679-b7e54bb63fed" points="478.7 191.3 483 354.7 437.2 354.7 441.5 191.3 478.7 191.3"/><path class="b7cb79e3-0cd2-4812-a958-e162587f4129" d="M671.2,206V450.7H556.7V419H538.8V387.3H524V206ZM639.8,350.5V316.3H612.6v34.2Zm0-65.8V250.4H612.6v34.3Zm-58.7,65.8V316.3H553.8v34.2Zm0-65.8V250.4H553.8v34.3Z"/><polygon class="bb53abd9-9824-49f8-9a17-53cb0bd5ea73" points="524 206 524 387.3 496.5 387.3 496.5 354.7 483 354.7 478.7 191.3 496.5 191.3 496.5 158.8 524 158.8 524 206"/><polygon class="b7cb79e3-0cd2-4812-a958-e162587f4129" points="496.5 354.7 496.5 387.3 423.7 387.3 423.7 354.7 437.2 354.7 483 354.7 496.5 354.7"/><polygon class="b7cb79e3-0cd2-4812-a958-e162587f4129" points="496.5 158.8 496.5 191.3 478.7 191.3 441.5 191.3 423.6 191.3 423.6 158.8 496.5 158.8"/><path class="fab01af3-b677-4b5a-bd11-799096806ee7" d="M305.9,279.8a40.2,40.2,0,0,1,80.4,0V387.3H305.9V279.8Z"/><path class="bb53abd9-9824-49f8-9a17-53cb0bd5ea73" d="M305.9,387.3H268.4V354.7H254.8l-4.3-163.4h17.8V158.8H423.6v32.5h17.9l-4.3,163.4H423.7v32.6H386.3V279.8a40.2,40.2,0,0,0-80.4,0V387.3Z"/><polygon class="b7cb79e3-0cd2-4812-a958-e162587f4129" points="254.8 354.7 268.4 354.7 268.4 387.3 195.5 387.3 195.5 354.7 209 354.7 254.8 354.7"/><polygon class="b7cb79e3-0cd2-4812-a958-e162587f4129" points="268.3 158.8 268.3 191.3 250.5 191.3 213.4 191.3 195.4 191.3 195.4 158.8 268.3 158.8"/><polygon class="bb53abd9-9824-49f8-9a17-53cb0bd5ea73" points="213.4 191.3 209 354.7 195.5 354.7 195.5 387.3 168.1 387.3 168.1 342.1 168.2 206.2 168.1 206.2 168.1 206 168.1 158.8 195.4 158.8 195.4 191.3 213.4 191.3"/><path class="b7cb79e3-0cd2-4812-a958-e162587f4129" d="M168.1,206.2V387.3H153.1V419h-18v31.7l-114.4-.2L21.1,206H94.6ZM137.5,350.5V316.3H110.2v34.2Zm0-65.8V250.4H110.2v34.3ZM78.7,350.5V316.3H51.5v34.2Zm0-65.8V250.4H51.5v34.3Z"/><polygon class="fab01af3-b677-4b5a-bd11-799096806ee7" points="168.1 387.3 195.5 387.3 268.4 387.3 305.9 387.3 386.3 387.3 423.7 387.3 496.5 387.3 524 387.3 538.8 387.3 538.8 419 153.2 419 153.2 387.4 168 387.4 168 387.3 168.1 387.3"/><polygon class="bb53abd9-9824-49f8-9a17-53cb0bd5ea73" points="153.2 419 538.8 419 556.7 419 556.7 450.7 135.2 450.7 135.2 419.1 153.1 419.1 153.1 419 153.2 419"/><polygon class="fab01af3-b677-4b5a-bd11-799096806ee7" points="538.6 124.1 538.6 158.8 524 158.8 496.5 158.8 423.6 158.8 268.3 158.8 195.4 158.8 168.1 158.8 153.3 158.8 153.3 124.1 538.6 124.1"/><path class="fab01af3-b677-4b5a-bd11-799096806ee7" d="M346,90.5a19.4,19.4,0,1,1,19.4-19.4A19.4,19.4,0,0,1,346,90.5Z"/><path class="bb53abd9-9824-49f8-9a17-53cb0bd5ea73" d="M326.6,71.1A19.4,19.4,0,1,0,346,51.7,19.4,19.4,0,0,0,326.6,71.1Zm212,53H153.3L345.9,0Z"/><rect class="fab01af3-b677-4b5a-bd11-799096806ee7" y="198" width="168.1" height="16.01"/><rect class="fab01af3-b677-4b5a-bd11-799096806ee7" x="524" y="198" width="168.1" height="16.01"/></g></g></svg>