<svg xmlns="http://www.w3.org/2000/svg" role="img" aria-labelledby="educateddesc" viewBox="0 0 1145 1179">
    <desc id="educateddesc">A graphic icon of an apple on top of two books, symbolizing education.</desc>
    <defs>
        <style>.b2b1af0a-bec8-45c5-ae61-8e2e5b3f61c0{fill:#7e8fad;}.a7f6e9d3-7b5f-422b-a95d-ea63f1fc88fa{fill:#f2d176;}.aa2ef657-2221-40f5-829c-4d38b15669d8{fill:#f68e4b;}.b4164aef-ddd6-406f-8ff5-899d52639bd7{fill:#de6273;}.f51beadc-db8c-4ca1-8b52-915d6ba0a4d9{fill:#d1ecee;}.e78750cb-a03a-48fe-9f5f-40b9d6cec936{fill:#495077;}.bf8d20a5-22bb-4b79-b26f-6b40d37f2973{fill:#f68e4b;}
        </style>
    </defs>
    <g id="be8ae87a-8660-4664-9e41-098101ed318d" data-name="Layer 2">
        <g id="a91fbef6-36f6-4a7f-a052-979ff9e2ca16" data-name="Layer 1">
            <path class="b2b1af0a-bec8-45c5-ae61-8e2e5b3f61c0" d="M587.7,128.3c.2-23.6-3.7-67.2-32.4-95.9C516-6.9,447.6.4,445.3.7a15.1,15.1,0,0,0-13.2,13.2c-.3,2.9-7.5,70.9,31.7,110,28,28.1,70.7,32.4,93.9,32.4v49a15.4,15.4,0,0,0,14.4,15.5,15,15,0,0,0,15.6-15V128.3Z"/>
            <path class="a7f6e9d3-7b5f-422b-a95d-ea63f1fc88fa" d="M676.5,681.4c-31.9,13.4-66.9-5.9-103.8-5.9v-138a101.4,101.4,0,1,0,0-202.8v-128c36.2,0,70.7-30.4,102.1-17.3,96.5,40,164.6,135.2,164.6,246.3S772.2,641,676.5,681.4Z"/>
            <path class="aa2ef657-2221-40f5-829c-4d38b15669d8" d="M572.7,334.7a101.4,101.4,0,1,1,0,202.8Z"/>
            <path class="b4164aef-ddd6-406f-8ff5-899d52639bd7" d="M469,190.1c31.9-13.5,66.9,16.6,103.7,16.6V675.5c-36.1,0-70.6,19.6-102,6.6A266.5,266.5,0,0,1,306.1,435.7C306.1,325.3,373.2,230.5,469,190.1Z"/>
            <rect class="f51beadc-db8c-4ca1-8b52-915d6ba0a4d9" x="200.7" y="916.1" width="163" height="75"/>
            <path class="f51beadc-db8c-4ca1-8b52-915d6ba0a4d9" d="M1039.1,851.1H1145a103,103,0,1,0,0,206H839.7v-94h-104v94H667.1a103,103,0,0,1-102.9-108c2.6-55,48.8-98,103.9-98h371Z"/>
            <polygon class="e78750cb-a03a-48fe-9f5f-40b9d6cec936" points="1038.7 679.1 1038.7 851.1 916.7 851.1 916.7 679.1 977.8 679.1 1038.7 679.1"/>
            <rect class="a7f6e9d3-7b5f-422b-a95d-ea63f1fc88fa" x="804.7" y="679.1" width="112" height="172"/>
            <polygon class="b4164aef-ddd6-406f-8ff5-899d52639bd7" points="839.7 1056.6 839.7 1179.4 787.8 1155.7 735.7 1179.4 735.7 1056.6 735.7 963.1 839.7 963.1 839.7 1056.6"/>
            <polygon class="e78750cb-a03a-48fe-9f5f-40b9d6cec936" points="804.7 679.1 804.7 851.1 667.1 851.1 533.7 851.1 340.7 851.1 340.7 679.1 804.7 679.1"/>
            <path class="bf8d20a5-22bb-4b79-b26f-6b40d37f2973" d="M564.4,954.1a102.9,102.9,0,0,0,103,103H534.7c-55,0-101.1-42.8-103.9-97.7a103.1,103.1,0,0,1,103-108.3H667.4A103,103,0,0,0,564.4,954.1Z"/>
            <rect class="a7f6e9d3-7b5f-422b-a95d-ea63f1fc88fa" x="235.7" y="679.1" width="105" height="172"/>
            <polygon class="e78750cb-a03a-48fe-9f5f-40b9d6cec936" points="235.7 679.1 235.7 851.1 211.5 851.1 112.7 851.1 112.7 679.1 167.3 679.1 235.7 679.1"/>
            <path class="b2b1af0a-bec8-45c5-ae61-8e2e5b3f61c0" d="M235.5,851.1H533.9a103,103,0,1,0,0,206H211.3a103,103,0,0,1-102.9-108c2.6-55,48.8-98,103.9-98Zm128.2,140v-75h-163v75Z"/>
            <path class="bf8d20a5-22bb-4b79-b26f-6b40d37f2973" d="M211.5,851.1a103,103,0,0,0,0,206H103A103,103,0,0,1,.1,949.1c2.6-55,48.8-98,103.9-98H211.5Z"/>
        </g>
    </g>
</svg>