<svg id="e01938a3-3d63-47e0-8282-c9d9fdd7801a" xmlns="http://www.w3.org/2000/svg" viewBox="0 0 1920 1080">
    <defs>
        <style>.be0b6830-cec4-4a8e-b1f4-01c31b0a31ea{fill:#495077;}</style>
    </defs>
    <path class="be0b6830-cec4-4a8e-b1f4-01c31b0a31ea" d="M980.227-8.454A94.471,94.471,0,0,1,1026.741,116.8l-39.287,85.7-39.48,86.123L776.19,209.846A94.48,94.48,0,1,1,854.932,38.074,94.085,94.085,0,0,1,908.1-11.188q2.115-.784,4.266-1.466A89.706,89.706,0,0,1,927.072-16a91.02,91.02,0,0,1,11.918-1.062c.046.021.116-.005.2,0a94.395,94.395,0,0,1,41.041,8.608Z"/>
    <path class="be0b6830-cec4-4a8e-b1f4-01c31b0a31ea" d="M275.731,419.347a94.473,94.473,0,0,1,17.225,132.5l-57.514,74.7-57.8,75.069L27.916,586.3A94.48,94.48,0,1,1,143.192,436.576,94.079,94.079,0,0,1,206.057,400.5q2.237-.291,4.486-.472a89.69,89.69,0,0,1,15.083.035,91.071,91.071,0,0,1,11.852,1.639c.04.031.115.021.19.048a94.389,94.389,0,0,1,38.063,17.6Z"/>
    <path class="be0b6830-cec4-4a8e-b1f4-01c31b0a31ea" d="M1960.857,442.023a131.654,131.654,0,0,1-56.669,177.37l-116.764,60.215-117.343,60.516L1549.4,506.038a131.666,131.666,0,0,1,234.04-120.7,131.1,131.1,0,0,1,100.665-8.321q2.994.957,5.94,2.06a124.953,124.953,0,0,1,19.009,8.969,126.929,126.929,0,0,1,13.984,9.08c.033.063.132.1.212.173a131.585,131.585,0,0,1,37.612,44.725Z"/>
    <path class="be0b6830-cec4-4a8e-b1f4-01c31b0a31ea" d="M1335.933,821.7a67.257,67.257,0,0,1,21.608,92.638l-35.439,57-35.612,57.28-114.253-71.054a67.264,67.264,0,0,1,71.03-114.247,66.979,66.979,0,0,1,41.972-30.019q1.563-.365,3.144-.652a63.739,63.739,0,0,1,10.687-1.046,64.667,64.667,0,0,1,8.512.319c.031.019.083.007.138.02a67.228,67.228,0,0,1,28.213,9.764Z"/>
    <path class="be0b6830-cec4-4a8e-b1f4-01c31b0a31ea" d="M798.859,980.771a77.057,77.057,0,0,1-48.775,97.461l-72.959,24.287-73.319,24.41L555.133,980.666a77.064,77.064,0,0,1,146.236-48.685,76.739,76.739,0,0,1,58.966,4.271q1.645.824,3.249,1.727a73.065,73.065,0,0,1,10.184,6.9,74.185,74.185,0,0,1,7.268,6.513c.013.039.068.067.107.119a77.027,77.027,0,0,1,17.716,29.258Z"/>
</svg>