<svg xmlns="http://www.w3.org/2000/svg" role="img" aria-labelledby="megaphonedesc" viewBox="0 0 723 489">
  <desc id="megaphonedesc">A megaphone with shouting emphasis marks.</desc>
  <defs>
    <style>.a{fill: #495077;}.b{fill: #f2d176;}</style>
  </defs>
  <g>
    <path class="a" d="M305.4,467.7a34.4,34.4,0,0,1-11.2-2L166.1,421.1c-17.4-6.1-31-25.3-31-43.6V330.6h23.8v46.9c0,8.3,7.2,18.4,15,21.2l128.2,44.6c2.3.8,4.4.9,5.5.1s1.8-2.7,1.8-5.2V391.3h23.7v46.9c0,10.3-4.3,19.3-11.8,24.6A27.7,27.7,0,0,1,305.4,467.7Z"/>
    <rect class="a" y="167.3" width="83.4" height="147.02"/>
    <path class="a" d="M570.8,32.9V455.7a32.9,32.9,0,1,1-65.7,0V32.9a32.9,32.9,0,1,1,65.7,0Z"/>
    <polygon class="b" points="505.1 455.7 505.1 461.4 321.2 397.2 147 336.5 83.4 314.3 83.4 167.3 505.1 27.2 505.1 32.9 505.1 455.7"/>
    <rect class="b" x="635.9" y="235.4" width="86.8" height="17.81"/>
    <rect class="b" x="604.5" y="119.7" width="86.7" height="17.81" transform="translate(98.8 495.8) rotate(-45)"/>
    <rect class="b" x="639" y="316.6" width="17.8" height="86.74" transform="translate(-64.8 563.6) rotate(-45)"/>
  </g>
</svg>
