<svg xmlns="http://www.w3.org/2000/svg" viewBox="0 0 302 454"><defs><style>.baa8d554-ba0e-4c84-97f2-df2b33d9ef7f{fill:#495077;}.a11bd13b-f1f2-40e3-bd71-cccfc06732e9{fill:#f68e4b;}</style></defs><g id="b656c3de-d75b-4964-9bc7-bd64b74c6c41" data-name="Layer 2"><g id="bae6103c-e54c-4ef8-bd8e-9689790f866a" data-name="Layer 1"><path class="baa8d554-ba0e-4c84-97f2-df2b33d9ef7f" d="M247,162.5v68.7a64,64,0,0,1-.5,8.8A93.8,93.8,0,0,1,153,325h-4a93.8,93.8,0,0,1-93.5-85,64,64,0,0,1-.5-8.8V93.8A93.8,93.8,0,0,1,148.8,0H153a93.8,93.8,0,0,1,94,93.8Z"/><rect class="a11bd13b-f1f2-40e3-bd71-cccfc06732e9" x="55" y="88" width="66" height="12"/><rect class="a11bd13b-f1f2-40e3-bd71-cccfc06732e9" x="55" y="234" width="66" height="12"/><rect class="a11bd13b-f1f2-40e3-bd71-cccfc06732e9" x="181" y="88" width="66" height="12"/><rect class="a11bd13b-f1f2-40e3-bd71-cccfc06732e9" x="181" y="234" width="66" height="12"/><path class="a11bd13b-f1f2-40e3-bd71-cccfc06732e9" d="M153.2,380h-4.4A148.8,148.8,0,0,1,0,231.2V162.1A6.1,6.1,0,0,1,6.1,156H121v13H12v62.4A136.7,136.7,0,0,0,148.6,368h4.8A136.7,136.7,0,0,0,290,231.4V169H181V156H295.9a6.1,6.1,0,0,1,6.1,6.1v69.1A148.8,148.8,0,0,1,153.2,380Z"/><rect class="a11bd13b-f1f2-40e3-bd71-cccfc06732e9" x="145" y="374" width="12" height="74"/><rect class="a11bd13b-f1f2-40e3-bd71-cccfc06732e9" x="69" y="442" width="164" height="12"/></g></g></svg>