<svg xmlns="http://www.w3.org/2000/svg" role="img" class="qbubble left" viewBox="0 0 330.8676 278.7512">
  <g data-name="qbubble-left">
    <path class="qbubble-shape" d="M199.6616,0H150.08A131.2061,131.2061,0,0,0,18.8743,131.2061h0a130.62,130.62,0,0,0,26.8671,79.5476c0,.0014,2.7467,21.2349-45.7414,67.8216,74.1594,2.8524,91.5013-29.9431,91.5016-29.9441A130.6437,130.6437,0,0,0,150.08,262.4123h49.5813a131.2061,131.2061,0,0,0,131.206-131.2062h0A131.2061,131.2061,0,0,0,199.6616,0Z"/>
    <path class="qmark" d="M209.8541,95.29c0,27.3237-25.74,33.4617-25.74,52.0735v5.94c0,5.148-2.97,8.118-8.1181,8.118h-7.5235c-5.1484,0-8.1181-2.97-8.1181-8.118v-3.7619c0-29.7,21.7793-33.0657,21.7793-51.4795V92.32c0-5.94-2.5733-10.4939-9.8995-10.4939s-9.8994,4.554-9.8994,10.4939v10.0979c0,5.148-2.9707,8.118-8.1181,8.118H142.732c-5.1475,0-8.1182-2.97-8.1182-8.118V92.32c0-21.5818,12.0781-31.4817,37.62-31.4817s37.62,9.9,37.62,31.4817Zm-37.8184,80.7832c8.91,0,15.0479,6.1379,15.0479,15.0479s-6.1377,15.0478-15.0479,15.0478-15.0479-6.1379-15.0479-15.0478S163.1255,176.0729,172.0357,176.0729Z"/>
  </g>
</svg>