<svg xmlns="http://www.w3.org/2000/svg" role="img" aria-labelledby="talkboxdesc" viewBox="0 0 1564 1051">
    <desc id="talkboxdesc">Two speech bubbles representing a text or chat interaction, one of which has blinking dots (as commonly seen by a person when the other person they're chatting with is typing a message)</desc>
    <defs>
        <style>.f40e3a53-3393-484f-8997-96de2de7224b{fill:#de6273;}.be5d6e63-154a-40c1-8967-e5446a625f33{fill:#495077;}.b03f1a3a-b7df-459f-b549-f7ff42111053{fill:#fff;}
        </style>
    </defs>
    <g id="a6861cb2-9d3e-4d71-8955-e4a014835602">
        <g id="f3301de5-ad03-4e71-b8fd-a0cda7db143c">
            <path class="f40e3a53-3393-484f-8997-96de2de7224b" d="M1110,200.4V664.5c0,34.8-28.6,63.5-63.7,63.5H380.4L272.6,850.7,164.9,728H63.5A63.7,63.7,0,0,1,0,664.5V63.5A63.7,63.7,0,0,1,63.5,0h982.8A63.7,63.7,0,0,1,1110,63.5Z"/>
            <path class="be5d6e63-154a-40c1-8967-e5446a625f33" d="M1564,264.5v600a63.7,63.7,0,0,1-63.5,63.5H1399.2l-107.7,122.6L1183.9,928H604.5A63.6,63.6,0,0,1,541,864.6V728h505.4a63.7,63.7,0,0,0,63.6-63.5V201h390.5A63.7,63.7,0,0,1,1564,264.5Z"/>
            <g class="dots">
                <path class="left b03f1a3a-b7df-459f-b549-f7ff42111053" d="M295.2,262.2a82.1,82.1,0,1,1-82.1,82A81.9,81.9,0,0,1,295.2,262.2Z"/>
                <path class="middle b03f1a3a-b7df-459f-b549-f7ff42111053" d="M554.6,262.2a82.1,82.1,0,1,1-82,82A82,82,0,0,1,554.6,262.2Z"/>
                <path class="right b03f1a3a-b7df-459f-b549-f7ff42111053" d="M814,262.2a82.1,82.1,0,1,1-82,82A81.9,81.9,0,0,1,814,262.2Z"/>
            </g>
        </g>
    </g>
</svg>