<svg xmlns="http://www.w3.org/2000/svg" role="img" viewBox="0 0 108.3204 80.2998"><circle class="rose-fill" cx="81" cy="72.1602" r="3.75"/><polygon class="white-fill" points="78.33 31.65 37.591 55.17 37.591 8.13 78.33 31.65"/><path class="rose-fill" d="M108.32,0V64.18H0V0ZM37.5909,55.17,78.33,31.65,37.5909,8.13Z"/><path class="navy-fill" d="M84.75,72.16A3.75,3.75,0,1,0,81,75.91,3.7447,3.7447,0,0,0,84.75,72.16ZM108.32,64.18V80.3H0V64.18Z"/><rect class="white-fill" x="8.1006" y="68.75" width="3" height="6.8106"/><rect class="white-fill" x="13" y="68.75" width="3" height="6.8106"/><rect class="white-fill" x="84.75" y="70.6602" width="14.5" height="3"/><rect class="white-fill" x="21.5" y="70.6602" width="55.7305" height="3"/><path class="white-fill" d="M81,77.41a5.25,5.25,0,1,1,5.25-5.25A5.2558,5.2558,0,0,1,81,77.41Zm0-7.5a2.25,2.25,0,1,0,2.25,2.25A2.2525,2.2525,0,0,0,81,69.91Z"/></svg>