<svg xmlns="http://www.w3.org/2000/svg" viewBox="0 0 738.8 711.5"><defs><style>.e4743f20-43fc-4d48-9f82-e72c48005958{fill:#fff;}.f2dcd599-c224-4509-8cd2-3323d6209043{fill:#de6273;}.a50d6758-2c84-45d8-a555-826dfb6536f0{fill:#495077;}.b8c80fab-e4c7-433d-af2c-a0b0b1412636{fill:#f68e4b;}.a35e4a32-2ae2-451e-acd1-43ab3a291c5f{fill:#f2d176;}</style></defs><g id="a9e9a329-c4d1-410f-83e1-ced0de8bf764" data-name="Layer 2"><g id="adeac10d-2bc3-439e-b778-5d8b97ed2866" data-name="Layer 1"><polygon class="e4743f20-43fc-4d48-9f82-e72c48005958" points="675.2 597.1 675.2 711.5 627.3 711.5 627.3 654.3 627.3 597.1 675.2 597.1"/><path class="f2dcd599-c224-4509-8cd2-3323d6209043" d="M738.8,630.6V678a33.5,33.5,0,0,1-33.5,33.5H675.2V597.1h30.1A33.5,33.5,0,0,1,738.8,630.6Z"/><path class="a50d6758-2c84-45d8-a555-826dfb6536f0" d="M165.1,0l86.4,220.9H219l-24.1-66.5H101.4L76.7,220.9h-30L132.7,0Zm20.5,129.6-36.8-103h-.6l-37.5,103Z"/><rect class="a50d6758-2c84-45d8-a555-826dfb6536f0" x="302.8" y="9.3" width="416.7" height="21.13"/><rect class="a50d6758-2c84-45d8-a555-826dfb6536f0" x="302.8" y="104.8" width="416.7" height="21.13"/><rect class="a50d6758-2c84-45d8-a555-826dfb6536f0" x="302.8" y="200.3" width="416.7" height="21.13"/><rect class="a50d6758-2c84-45d8-a555-826dfb6536f0" x="36.7" y="295.8" width="682.8" height="21.13"/><rect class="a50d6758-2c84-45d8-a555-826dfb6536f0" x="36.7" y="391.3" width="682.8" height="21.13"/><rect class="a50d6758-2c84-45d8-a555-826dfb6536f0" x="36.7" y="486.8" width="682.8" height="21.13"/><polygon class="e4743f20-43fc-4d48-9f82-e72c48005958" points="93.7 597.1 137.6 654.3 93.7 711.5 56.4 688.6 56.4 619.9 93.7 597.1"/><polygon class="b8c80fab-e4c7-433d-af2c-a0b0b1412636" points="627.3 654.3 627.3 711.5 93.7 711.5 137.6 654.3 627.3 654.3"/><polygon class="a35e4a32-2ae2-451e-acd1-43ab3a291c5f" points="627.3 597.1 627.3 654.3 137.6 654.3 93.7 597.1 627.3 597.1"/><polygon class="a50d6758-2c84-45d8-a555-826dfb6536f0" points="56.4 619.9 56.4 688.6 0 654.3 56.4 619.9"/></g></g></svg>